<?xml version="1.0" encoding="utf-8"?>
<!-- Generator: Adobe Illustrator 23.1.1, SVG Export Plug-In . SVG Version: 6.00 Build 0)  -->
<svg version="1.1" id="Layer_1" xmlns="http://www.w3.org/2000/svg" xmlns:xlink="http://www.w3.org/1999/xlink" x="0px" y="0px"
	 viewBox="0 0 380 150" style="enable-background:new 0 0 380 150;" xml:space="preserve">
<style type="text/css">
	.st0{enable-background:new    ;}
	.st1{fill:#00CCCC;}
</style>
<g>
	<g class="st0">
		<path class="st1" d="M294.87,112.64c0,0.92-0.11,1.81-0.32,2.65c-0.21,0.84-0.52,1.63-0.92,2.36c-0.4,0.73-0.87,1.39-1.43,1.98
			s-1.19,1.1-1.88,1.52c-0.7,0.42-1.45,0.74-2.27,0.97c-0.81,0.23-1.67,0.35-2.57,0.35c-1.13,0-2.14-0.2-3.04-0.59
			c-0.9-0.39-1.66-0.93-2.28-1.62c-0.63-0.68-1.11-1.49-1.44-2.42c-0.33-0.93-0.5-1.93-0.5-3c0-0.92,0.11-1.81,0.32-2.66
			c0.21-0.85,0.52-1.64,0.92-2.37c0.39-0.73,0.87-1.39,1.44-1.98c0.56-0.59,1.19-1.1,1.89-1.52c0.7-0.42,1.45-0.74,2.27-0.97
			c0.81-0.23,1.67-0.35,2.58-0.35c1.12,0,2.13,0.2,3.02,0.59c0.9,0.4,1.66,0.94,2.28,1.63c0.62,0.69,1.1,1.5,1.43,2.43
			S294.87,111.58,294.87,112.64z M290.95,112.74c0-0.71-0.08-1.34-0.25-1.92s-0.42-1.07-0.74-1.48c-0.33-0.41-0.72-0.73-1.19-0.95
			c-0.47-0.22-1-0.33-1.6-0.33c-0.78,0-1.48,0.16-2.1,0.49c-0.62,0.32-1.14,0.78-1.58,1.37c-0.43,0.59-0.77,1.29-1,2.12
			c-0.23,0.83-0.35,1.74-0.35,2.74c0,0.7,0.08,1.34,0.25,1.91c0.17,0.57,0.41,1.06,0.72,1.47c0.32,0.41,0.71,0.72,1.18,0.95
			c0.47,0.22,1.01,0.33,1.61,0.33c0.78,0,1.49-0.16,2.11-0.48c0.62-0.32,1.15-0.78,1.58-1.36s0.77-1.29,1-2.11
			S290.95,113.74,290.95,112.74z"/>
		<path class="st1" d="M308.25,108.14h-6.33l-0.52,4.13h4.85l-0.38,2.84h-4.83l-0.52,4.24h6.38l-0.38,2.95h-10.21l2.11-17.11h10.19
			L308.25,108.14z"/>
		<path class="st1" d="M319.12,116.3c0.12-0.26,0.26-0.51,0.39-0.76c0.14-0.25,0.28-0.5,0.43-0.75l5.24-9
			c0.16-0.27,0.35-0.43,0.59-0.49c0.23-0.06,0.46-0.09,0.68-0.09h3.01l-2.11,17.11h-3.36l1.2-9.96c0.02-0.21,0.06-0.44,0.11-0.7
			c0.05-0.25,0.11-0.52,0.17-0.79l-5.14,8.83c-0.16,0.27-0.36,0.46-0.61,0.59c-0.25,0.13-0.52,0.19-0.82,0.19h-0.52
			c-0.3,0-0.56-0.07-0.78-0.2c-0.22-0.13-0.38-0.33-0.46-0.59l-3-8.85c-0.02,0.27-0.03,0.52-0.04,0.78
			c-0.01,0.25-0.03,0.48-0.05,0.68l-1.17,10.01h-3.38l2.11-17.09h2.91c0.17,0,0.31,0,0.43,0s0.24,0.02,0.33,0.05
			c0.1,0.04,0.18,0.09,0.25,0.17s0.13,0.19,0.18,0.34l3,9.01C318.87,115.27,319.01,115.78,319.12,116.3z"/>
	</g>
	<g>
		<g class="st0">
			<path class="st1" d="M67.87,36.45c0.43-3.47,1.12-6.09,2.06-7.86c0.94-1.77,2.08-3.04,3.42-3.8c1.34-0.76,2.86-1.17,4.56-1.25
				c1.7-0.07,3.52-0.11,5.48-0.11h7.59l-1.3,10.85h-4.45c-1.16,0-2.12,0.13-2.87,0.38c-0.76,0.25-1.41,0.76-1.95,1.52
				c-0.54,0.76-1,1.88-1.36,3.36c-0.36,1.48-0.69,3.42-0.98,5.8l-8.03,64.76c-0.36,3.18-1.03,5.6-2.01,7.27
				c-0.98,1.66-2.15,2.86-3.53,3.58c-1.37,0.72-2.91,1.1-4.61,1.14c-1.7,0.04-3.42,0.05-5.15,0.05h-7.7l1.3-10.85h4.45
				c1.16,0,2.12-0.13,2.87-0.38c0.76-0.25,1.41-0.78,1.95-1.57c0.54-0.8,0.99-1.94,1.36-3.42c0.36-1.48,0.69-3.42,0.98-5.8
				L67.87,36.45z"/>
		</g>
		<g class="st0">
			<path class="st1" d="M97.07,51.26c0.33,0.03,0.62,0.11,0.88,0.24c0.26,0.12,0.49,0.3,0.69,0.52c0.2,0.23,0.4,0.52,0.61,0.88
				l17.24,30.37c0.04-0.79,0.11-1.54,0.2-2.26c0.09-0.72,0.17-1.39,0.24-2.03l3.31-27.77h9.72l-6.07,49.16h-5.74
				c-0.85,0-1.56-0.12-2.13-0.37c-0.56-0.25-1.05-0.73-1.45-1.45L97.39,68.22c-0.05,0.63-0.1,1.24-0.15,1.82
				c-0.06,0.58-0.11,1.14-0.15,1.65l-3.37,28.68H84l6.07-49.16h5.8C96.35,51.21,96.74,51.23,97.07,51.26z"/>
			<path class="st1" d="M170.18,51.21l-1.15,8.71h-12.48l-4.99,40.46h-10.93l4.93-40.46h-12.55l1.08-8.71H170.18z"/>
			<path class="st1" d="M202.5,59.68h-18.19l-1.48,11.88h13.94l-1.08,8.17h-13.87l-1.48,12.18h18.32l-1.08,8.47h-29.36l6.07-49.16
				h29.29L202.5,59.68z"/>
			<path class="st1" d="M225.65,92.45c1.35,0,2.56-0.12,3.64-0.35c1.08-0.24,2.11-0.57,3.1-1l0.94-8.03h-4.18
				c-0.63,0-1.11-0.15-1.45-0.44c-0.34-0.29-0.51-0.69-0.51-1.18l0.74-6.34h16.4l-2.56,20.55c-1.26,0.92-2.56,1.71-3.91,2.38
				c-1.35,0.66-2.76,1.21-4.23,1.64c-1.47,0.43-3.03,0.74-4.66,0.95s-3.37,0.3-5.21,0.3c-3.04,0-5.81-0.56-8.32-1.67
				c-2.51-1.11-4.66-2.65-6.45-4.61s-3.17-4.27-4.15-6.95c-0.98-2.68-1.47-5.58-1.47-8.71c0-2.72,0.31-5.31,0.93-7.78
				c0.62-2.46,1.5-4.74,2.65-6.83c1.15-2.09,2.52-3.98,4.13-5.67s3.4-3.13,5.37-4.32s4.09-2.11,6.36-2.75
				c2.27-0.64,4.66-0.96,7.15-0.96c2.09,0,3.99,0.19,5.69,0.57c1.7,0.38,3.22,0.89,4.57,1.54c1.35,0.64,2.55,1.38,3.61,2.23
				c1.06,0.84,1.99,1.72,2.8,2.62l-3.58,4.42c-0.81,0.99-1.72,1.48-2.73,1.48c-0.61,0-1.23-0.2-1.86-0.61
				c-0.81-0.52-1.56-0.97-2.26-1.37s-1.4-0.72-2.11-0.98c-0.71-0.26-1.46-0.46-2.26-0.59s-1.69-0.2-2.68-0.2
				c-2.14,0-4.09,0.46-5.87,1.37s-3.31,2.19-4.59,3.85s-2.28,3.64-2.99,5.96s-1.06,4.87-1.06,7.66c0,2.16,0.26,4.1,0.79,5.82
				c0.53,1.72,1.28,3.17,2.24,4.35c0.97,1.18,2.13,2.09,3.48,2.72C222.51,92.13,224.01,92.45,225.65,92.45z"/>
			<path class="st1" d="M260.44,82.02l-2.26,18.36h-10.93l6.01-49.16h14.92c3.01,0,5.58,0.32,7.71,0.96
				c2.13,0.64,3.86,1.52,5.21,2.65c1.35,1.12,2.33,2.46,2.95,4c0.62,1.54,0.93,3.21,0.93,5.01c0,1.82-0.24,3.54-0.73,5.16
				c-0.48,1.62-1.19,3.11-2.11,4.47c-0.92,1.36-2.05,2.56-3.39,3.61c-1.34,1.05-2.86,1.91-4.57,2.58c0.67,0.38,1.31,0.84,1.91,1.38
				s1.06,1.21,1.4,2.02l7.15,17.31h-9.92c-0.92,0-1.7-0.18-2.33-0.54c-0.63-0.36-1.07-0.88-1.32-1.55l-5.33-14.54
				c-0.25-0.63-0.58-1.07-1-1.33c-0.42-0.26-1.03-0.39-1.84-0.39H260.44z M263.24,59.41l-1.86,15.02h4.02
				c1.57,0,2.91-0.24,4.02-0.73c1.1-0.48,2-1.13,2.68-1.94c0.69-0.81,1.18-1.75,1.48-2.83c0.3-1.08,0.46-2.22,0.46-3.41
				c0-0.92-0.13-1.76-0.41-2.51c-0.27-0.75-0.69-1.39-1.27-1.92c-0.57-0.53-1.29-0.94-2.16-1.23c-0.87-0.29-1.88-0.44-3.05-0.44
				H263.24z"/>
			<path class="st1" d="M330.66,100.38h-8.5c-0.94,0-1.7-0.22-2.28-0.66s-0.92-1.02-1.03-1.74l-1.52-8.84h-16.7l-3.64,8.84
				c-0.25,0.63-0.73,1.19-1.45,1.67c-0.72,0.48-1.52,0.73-2.4,0.73h-8.64l23.49-49.16h11.27L330.66,100.38z M303.7,81.65h12.35
				l-2.4-14.04c-0.2-1.17-0.42-2.36-0.66-3.56s-0.43-2.3-0.59-3.29c-0.18,0.54-0.42,1.15-0.71,1.84c-0.29,0.69-0.58,1.36-0.86,2.01
				c-0.28,0.65-0.55,1.26-0.81,1.82s-0.44,0.98-0.56,1.25L303.7,81.65z"/>
		</g>
	</g>
</g>
</svg>
